<svg xmlns="http://www.w3.org/2000/svg" width="192" height="192" viewBox="0 0 192 192">
  <defs>
    <linearGradient id="g" x1="0" y1="0" x2="192" y2="192">
      <stop offset="0" stop-color="#7c5cff"/>
      <stop offset="1" stop-color="#4dd6ff"/>
    </linearGradient>
  </defs>
  <rect x="18" y="18" width="156" height="156" rx="36" fill="url(#g)"/>
  <path d="M63 118c0-26 20-47 45-47 6 0 12 1 17 4l-9 16c-3-2-7-3-11-3-14 0-25 12-25 27 0 15 11 27 25 27 4 0 8-1 11-3l9 16c-5 3-11 4-17 4-25 0-45-21-45-47z" fill="#070810" opacity="0.92"/>
</svg>

